<svg xmlns="http://www.w3.org/2000/svg" xml:space="preserve" id="Ebene_1" x="0" y="0" style="enable-background:new 0 0 64 64" version="1.1" viewBox="0 0 64 64"><style>.st0{fill:#279989!important}.st4{opacity:.8;fill:#279989}</style><path d="M0 0h64v64H0V0z" class="st0"/><path d="M16 14h32v36H16V14z" style="fill:#fff!important"/><path d="M16 14h4v4h-4v-4z" class="st0"/><path d="M18 14h2v36h-2V14z" style="opacity:.5;fill:#279989;enable-background:new"/><path d="M34 33.5c2.1 0 4-.2 5.8-.5 1.8-.3 3.2-.9 4.2-1.5v2.1c0 .6-.4 1.1-1.3 1.6s-2.1.9-3.6 1.1c-1.5.3-3.2.4-5 .4-1.8 0-3.5-.1-5-.4-1.5-.3-2.8-.7-3.6-1.1-.9-.5-1.3-1-1.3-1.6v-2.1c1 .7 2.4 1.2 4.2 1.5 1.6.3 3.5.5 5.6.5z" style="opacity:.4;fill:#279989"/><path d="M34 42.9c2.1 0 4-.2 5.8-.5 1.8-.3 3.2-.9 4.2-1.5V43c0 .6-.4 1.1-1.3 1.6s-2.1.9-3.6 1.1c-1.5.3-3.2.4-5 .4-1.8 0-3.5-.1-5-.4-1.5-.3-2.8-.7-3.6-1.1-.9-.5-1.3-1-1.3-1.6v-2.1c1 .7 2.4 1.2 4.2 1.5 1.6.3 3.5.5 5.6.5z" class="st4"/><path d="M34 38.2c2.1 0 4-.2 5.8-.5 1.8-.3 3.2-.9 4.2-1.5v2.1c0 .6-.4 1.1-1.3 1.6s-2.1.9-3.6 1.1c-1.5.3-3.2.4-5 .4-1.8 0-3.5-.1-5-.4-1.5-.3-2.8-.7-3.6-1.1-.9-.5-1.3-1-1.3-1.6v-2.1c1 .7 2.4 1.2 4.2 1.5 1.6.3 3.5.5 5.6.5z" style="opacity:.6;fill:#279989"/><path d="M34 24.2c1.8 0 3.5.1 5 .4 1.5.3 2.8.7 3.6 1.1s1.3 1 1.3 1.6v1.6c0 .6-.4 1.1-1.3 1.6s-2.1.9-3.6 1.1c-1.5.3-3.2.4-5 .4-1.8 0-3.5-.1-5-.4-1.5-.3-2.8-.7-3.6-1.1-.9-.5-1.3-1-1.3-1.6v-1.6c0-.6.4-1.1 1.3-1.6s2.1-.9 3.6-1.1c1.5-.3 3.2-.4 5-.4z" style="opacity:.2;fill:#279989"/><path d="M32 18v1.7h-4l6 3.7 6-3.7h-4V18z" class="st4"/></svg>
